<svg width="100" height="103" viewBox="0 0 100 103" fill="none" xmlns="http://www.w3.org/2000/svg">
<g filter="url(#filter0_i_33_58)">
<path d="M18.1429 49.88L26.6429 78.4L49.7143 97L72.7857 78.4L81.2857 49.88V31.28L74 36.24L63.0714 42.44L54.5714 44.92L33.9286 49.88H6L8.42857 39.96L14.5 27.56L24.2143 16.4L37.5714 8.96L54.5714 4H72.7857L91 7.72L82.5 15.16L76.4286 20.12L69.1429 25.08L54.5714 32.52L37.5714 36.24H26.6429L33.9286 27.56L44.8571 21.36L52.1429 20.12" stroke="url(#paint0_linear_33_58)" stroke-width="8"/>
</g>
<defs>
<filter id="filter0_i_33_58" x="0.902588" y="0" width="98.8034" height="106.138" filterUnits="userSpaceOnUse" color-interpolation-filters="sRGB">
<feFlood flood-opacity="0" result="BackgroundImageFix"/>
<feBlend mode="normal" in="SourceGraphic" in2="BackgroundImageFix" result="shape"/>
<feColorMatrix in="SourceAlpha" type="matrix" values="0 0 0 0 0 0 0 0 0 0 0 0 0 0 0 0 0 0 127 0" result="hardAlpha"/>
<feOffset dy="5"/>
<feGaussianBlur stdDeviation="2"/>
<feComposite in2="hardAlpha" operator="arithmetic" k2="-1" k3="1"/>
<feColorMatrix type="matrix" values="0 0 0 0 0 0 0 0 0 0 0 0 0 0 0 0 0 0 0.5 0"/>
<feBlend mode="normal" in2="shape" result="effect1_innerShadow_33_58"/>
</filter>
<linearGradient id="paint0_linear_33_58" x1="2" y1="51" x2="91" y2="51" gradientUnits="userSpaceOnUse">
<stop stop-color="#112697"/>
<stop offset="1" stop-color="#5810EA"/>
</linearGradient>
</defs>
</svg>
